<svg xmlns="http://www.w3.org/2000/svg" width="32" height="32" viewBox="0 0 24 24" fill="none" stroke="white" stroke-width="2" stroke-linecap="round" stroke-linejoin="round">
  <defs>
    <linearGradient id="grad" x1="0%" y1="0%" x2="100%" y2="100%">
      <stop offset="0%" style="stop-color:#6366f1;stop-opacity:1" />
      <stop offset="100%" style="stop-color:#8b5cf6;stop-opacity:1" />
    </linearGradient>
  </defs>
  <rect width="24" height="24" rx="6" fill="url(#grad)"/>
  <g transform="translate(4, 4) scale(0.67)">
    <path d="M17 21a1 1 0 0 1-1 1H8a1 1 0 0 1-1-1v-1h10z" stroke="white" fill="none"/>
    <path d="M12 2c3.866 0 7 3.134 7 7a7 7 0 0 1-3 5.745V16H8v-1.255A7 7 0 0 1 5 9c0-3.866 3.134-7 7-7Z" stroke="white" fill="none"/>
  </g>
</svg>